<?xml version="1.0" encoding="UTF-8" standalone="no"?>
<!-- Created with Inkscape (http://www.inkscape.org/) -->

<svg
   xmlns:dc="http://purl.org/dc/elements/1.1/"
   xmlns:cc="http://creativecommons.org/ns#"
   xmlns:rdf="http://www.w3.org/1999/02/22-rdf-syntax-ns#"
   xmlns:svg="http://www.w3.org/2000/svg"
   xmlns="http://www.w3.org/2000/svg"
   xmlns:sodipodi="http://sodipodi.sourceforge.net/DTD/sodipodi-0.dtd"
   xmlns:inkscape="http://www.inkscape.org/namespaces/inkscape"
   width="10.486512mm"
   height="8.0376549mm"
   viewBox="0 0 10.486512 8.0376549"
   version="1.1"
   id="svg8"
   inkscape:version="0.92.4 5da689c313, 2019-01-14"
   sodipodi:docname="irla_.svg">
  <defs
     id="defs2" />
  <sodipodi:namedview
     id="base"
     pagecolor="#ffffff"
     bordercolor="#666666"
     borderopacity="1.0"
     inkscape:pageopacity="0.0"
     inkscape:pageshadow="2"
     inkscape:zoom="2.1725996"
     inkscape:cx="127.06186"
     inkscape:cy="-96.197948"
     inkscape:document-units="mm"
     inkscape:current-layer="layer1"
     showgrid="false"
     inkscape:window-width="1215"
     inkscape:window-height="776"
     inkscape:window-x="65"
     inkscape:window-y="24"
     inkscape:window-maximized="1" />
  <metadata
     id="metadata5">
    <rdf:RDF>
      <cc:Work
         rdf:about="">
        <dc:format>image/svg+xml</dc:format>
        <dc:type
           rdf:resource="http://purl.org/dc/dcmitype/StillImage" />
        <dc:title></dc:title>
      </cc:Work>
    </rdf:RDF>
  </metadata>
  <g
     inkscape:label="Layer 1"
     inkscape:groupmode="layer"
     id="layer1"
     transform="translate(-72.214884,-115.3433)">
    <path
       inkscape:connector-curvature="0"
       id="path4086"
       d="m 79.037232,123.28965 c -0.403979,-0.36939 -0.555583,-1.00716 -0.587999,-2.4736 -0.01899,-0.8589 -0.0094,-1.07785 0.08459,-1.93675 0.05829,-0.53261 0.134794,-1.26842 0.169995,-1.63513 0.07252,-0.75555 0.146888,-1.13992 0.269194,-1.39144 0.175013,-0.35991 0.47528,-0.56445 0.728777,-0.49647 0.163008,0.0437 0.251736,0.1711 0.300687,0.43164 0.156207,0.8314 -0.173199,2.23569 -0.886161,3.77777 -0.12822,0.27734 -0.246364,0.54711 -0.262542,0.59951 -0.01618,0.0524 -0.0565,0.0952 -0.08962,0.0952 -0.140685,0 -0.07778,1.82375 0.08375,2.42818 0.04423,0.16551 0.135621,0.38662 0.203086,0.49134 0.06747,0.10473 0.11678,0.19495 0.109588,0.20048 -0.0072,0.006 -0.06269,-0.0353 -0.123343,-0.0908 z m -0.08821,-3.75505 c 0.549445,-1.42369 0.806028,-2.47213 0.80685,-3.29693 2.46e-4,-0.34762 -0.05651,-0.64441 -0.130151,-0.67944 -0.07312,-0.0348 -0.279418,0.15262 -0.368216,0.33447 -0.132067,0.27047 -0.191279,0.56034 -0.263087,1.28797 -0.03619,0.36671 -0.101654,0.98822 -0.145475,1.38113 -0.09167,0.82192 -0.145095,1.51533 -0.114978,1.49225 0.01138,-0.009 0.108167,-0.24248 0.215057,-0.51945 z m -5.344272,3.04954 c -0.83066,-0.18002 -1.457853,-0.97456 -1.383948,-1.75322 0.08918,-0.93964 0.834117,-1.50327 1.820151,-1.37714 0.486005,0.0622 0.486005,0.0881 0,0.0903 -0.410196,0.002 -0.477769,0.0108 -0.701512,0.0923 -0.551837,0.20119 -0.85881,0.65875 -0.856892,1.27726 0.0018,0.59938 0.403675,1.17157 0.976168,1.39006 0.428362,0.16348 0.739952,0.1217 1.109605,-0.14878 0.409292,-0.29949 0.717013,-0.69171 0.844684,-1.07663 0.09277,-0.2797 0.08987,-1.47174 -0.0057,-2.34772 -0.03655,-0.33501 -0.06647,-0.6312 -0.06647,-0.6582 0,-0.0273 -0.05034,-0.0584 -0.11348,-0.0701 -0.293093,-0.0541 -0.520753,-0.18854 -0.589148,-0.34799 -0.06591,-0.15366 0.007,-0.31792 0.262945,-0.59239 l 0.219211,-0.23508 -0.03722,-0.25172 c -0.09086,-0.61448 0.08972,-1.08668 0.447218,-1.16945 0.122126,-0.0283 0.2935,0.0852 0.345272,0.22861 0.119019,0.32972 0.0031,0.74632 -0.29138,1.04631 l -0.1691,0.17233 0.106761,0.65599 c 0.206534,1.26904 0.306217,2.61138 0.237119,3.19306 -0.0726,0.61122 -0.327643,1.05995 -0.855181,1.50468 -0.415528,0.3503 -0.846552,0.47554 -1.29908,0.37747 z m 1.630736,-5.10536 -0.07238,-0.42047 -0.09911,0.0929 c -0.27638,0.25914 -0.326449,0.46166 -0.146161,0.59121 0.115844,0.0833 0.349427,0.18759 0.375545,0.16775 0.008,-0.006 -0.0181,-0.20018 -0.0579,-0.43143 z m 0.300358,-1.08393 c 0.09897,-0.14485 0.113912,-0.20289 0.114047,-0.443 1.71e-4,-0.30891 -0.05236,-0.39998 -0.158499,-0.27477 -0.152783,0.18025 -0.218469,0.88446 -0.0825,0.88446 0.0072,0 0.06431,-0.075 0.126952,-0.16669 z m 2.056132,6.05516 c -0.182475,-0.1515 -0.243438,-0.42894 -0.219752,-1.00009 0.01819,-0.43868 0.01271,-0.50801 -0.03899,-0.49274 -0.03309,0.01 -0.132818,0.0267 -0.221617,0.0376 -0.15439,0.019 -0.161454,0.0251 -0.161454,0.13865 0,0.1883 -0.119753,0.66654 -0.203283,0.81183 -0.100879,0.17547 -0.349191,0.3833 -0.557312,0.46645 -0.207161,0.0828 -0.528111,0.0885 -0.714642,0.0129 -0.139171,-0.0564 -0.191866,-0.14156 -0.0619,-0.1 0.19162,0.0613 0.459813,0.0545 0.650725,-0.0167 0.390052,-0.14529 0.594488,-0.49345 0.629846,-1.07267 0.01802,-0.2952 0.01193,-0.33361 -0.06291,-0.39688 -0.184232,-0.15572 -0.236809,-0.38362 -0.110862,-0.48052 0.08021,-0.0617 0.100792,-0.0619 0.211671,-0.003 0.08336,0.0449 0.136695,0.1382 0.195116,0.34121 0.02069,0.0719 0.0473,0.0873 0.150846,0.0873 0.153116,0 0.279394,-0.0491 0.380418,-0.14792 0.07871,-0.077 0.21075,-0.0985 0.256301,-0.0418 0.01436,0.0179 -0.0017,0.0929 -0.03557,0.1667 -0.07942,0.17278 -0.170166,1.10489 -0.131024,1.34592 0.03414,0.21019 0.119771,0.35988 0.205885,0.35988 0.03213,0 0.06988,0.0143 0.08391,0.0317 0.0551,0.0686 -0.154101,0.027 -0.245393,-0.0488 z m 3.871758,-0.25082 c -0.163351,-0.0547 -0.316307,-0.21052 -0.411244,-0.41893 l -0.0742,-0.16291 -0.09,0.14704 c -0.29872,0.48804 -0.970225,0.49209 -1.192577,0.007 -0.08645,-0.18852 -0.07941,-0.45174 0.01987,-0.7434 0.156891,-0.46086 0.390181,-0.75483 0.626639,-0.7896 0.17245,-0.0254 0.358009,0.0333 0.426176,0.13472 0.05752,0.0856 0.07061,0.0904 0.127182,0.0469 0.04738,-0.0365 0.08287,-0.0404 0.142724,-0.0157 0.07149,0.0294 0.07966,0.0696 0.07966,0.39098 0,0.58001 0.150834,1.06355 0.377534,1.21033 0.06819,0.0442 0.151336,0.0803 0.184765,0.0803 0.217141,0 0.52988,-0.26992 0.824719,-0.71179 0.08824,-0.13225 0.174169,-0.2405 0.190952,-0.24058 0.04471,-2.1e-4 -0.196073,0.49172 -0.320907,0.65562 -0.218233,0.28652 -0.476326,0.45703 -0.687612,0.45426 -0.0522,-6.6e-4 -0.152852,-0.0207 -0.223683,-0.0443 z m -0.976766,-0.34333 c 0.224473,-0.18888 0.342732,-0.54859 0.33664,-1.02393 -0.0023,-0.17463 -0.01256,-0.2925 -0.02295,-0.26195 -0.03043,0.0896 -0.09535,0.0638 -0.09535,-0.0379 0,-0.10072 -0.124239,-0.19231 -0.260851,-0.19231 -0.286808,0 -0.641024,0.76927 -0.561593,1.21964 0.04335,0.2458 0.164189,0.36787 0.36414,0.36787 0.108137,0 0.180751,-0.0216 0.239958,-0.0714 z"
       style="fill:#000000;stroke-width:0.03619639" />
  </g>
</svg>
