<?xml version="1.0" encoding="UTF-8" standalone="no"?>
<!-- Created with Inkscape (http://www.inkscape.org/) -->

<svg
   xmlns:dc="http://purl.org/dc/elements/1.1/"
   xmlns:cc="http://creativecommons.org/ns#"
   xmlns:rdf="http://www.w3.org/1999/02/22-rdf-syntax-ns#"
   xmlns:svg="http://www.w3.org/2000/svg"
   xmlns="http://www.w3.org/2000/svg"
   xmlns:sodipodi="http://sodipodi.sourceforge.net/DTD/sodipodi-0.dtd"
   xmlns:inkscape="http://www.inkscape.org/namespaces/inkscape"
   width="67.236893mm"
   height="66.980049mm"
   viewBox="0 0 67.236893 66.980049"
   version="1.1"
   id="svg8"
   inkscape:version="0.92.4 5da689c313, 2019-01-14"
   sodipodi:docname="irla.svg">
  <defs
     id="defs2" />
  <sodipodi:namedview
     id="base"
     pagecolor="#ffffff"
     bordercolor="#666666"
     borderopacity="1.0"
     inkscape:pageopacity="0.0"
     inkscape:pageshadow="2"
     inkscape:zoom="2.1725996"
     inkscape:cx="127.06184"
     inkscape:cy="126.57648"
     inkscape:document-units="mm"
     inkscape:current-layer="layer1"
     showgrid="false"
     inkscape:window-width="1215"
     inkscape:window-height="776"
     inkscape:window-x="65"
     inkscape:window-y="24"
     inkscape:window-maximized="1" />
  <metadata
     id="metadata5">
    <rdf:RDF>
      <cc:Work
         rdf:about="">
        <dc:format>image/svg+xml</dc:format>
        <dc:type
           rdf:resource="http://purl.org/dc/dcmitype/StillImage" />
        <dc:title></dc:title>
      </cc:Work>
    </rdf:RDF>
  </metadata>
  <g
     inkscape:label="Layer 1"
     inkscape:groupmode="layer"
     id="layer1"
     transform="translate(-72.214888,-115.34331)">
    <path
       inkscape:connector-curvature="0"
       id="path4086"
       d="m 115.95804,181.56275 c -2.59021,-3.0783 -3.56226,-8.39305 -3.7701,-20.61335 -0.12173,-7.15749 -0.0604,-8.98209 0.54236,-16.13958 0.37379,-4.43839 0.86427,-10.5701 1.08997,-13.62604 0.46501,-6.29621 0.94181,-9.49936 1.726,-11.59532 1.12214,-2.99918 3.04738,-4.70376 4.67274,-4.13716 1.04516,0.36435 1.61406,1.42572 1.92792,3.59688 1.00157,6.92837 -1.11051,18.6308 -5.68183,31.48148 -0.82212,2.31112 -1.57963,4.55922 -1.68336,4.99578 -0.10372,0.43657 -0.36229,0.79375 -0.57461,0.79375 -0.90203,0 -0.49873,15.19793 0.53697,20.23484 0.2836,1.37926 0.86956,3.22181 1.30213,4.09454 0.43257,0.87274 0.74876,1.62451 0.70266,1.67061 -0.0461,0.0461 -0.40198,-0.29429 -0.79085,-0.75643 z m -0.56555,-31.29206 c 3.5229,-11.86404 5.16805,-20.60105 5.17332,-27.47441 0.002,-2.89678 -0.36232,-5.37012 -0.8345,-5.66194 -0.46883,-0.28975 -1.79155,1.27186 -2.3609,2.78727 -0.84678,2.25388 -1.22643,4.66948 -1.68685,10.733 -0.23205,3.05594 -0.65178,8.23516 -0.93275,11.50938 -0.58774,6.84931 -0.93031,12.62778 -0.73721,12.43541 0.073,-0.0728 0.69354,-2.02068 1.37889,-4.32871 z m -34.266123,25.41273 c -5.325991,-1.50012 -9.347386,-8.12126 -8.873536,-14.61009 0.571815,-7.83033 5.348153,-12.5272 11.670354,-11.47617 3.116146,0.51805 3.116146,0.73417 0,0.75235 -2.630073,0.0153 -3.063333,0.0894 -4.497917,0.7692 -3.538241,1.67657 -5.506475,5.48956 -5.494177,10.64371 0.01191,4.99489 2.588269,9.76313 6.258939,11.58386 2.746552,1.36235 4.744395,1.01419 7.114514,-1.23981 2.624283,-2.49571 4.59731,-5.76419 5.415904,-8.97189 0.594836,-2.33089 0.576202,-12.26449 -0.0367,-19.56425 -0.234405,-2.79177 -0.426188,-5.26005 -0.426188,-5.48506 0,-0.22763 -0.322779,-0.48651 -0.727605,-0.58358 -1.879235,-0.4506 -3.33893,-1.57123 -3.777469,-2.90001 -0.422577,-1.28042 0.04492,-2.64927 1.685941,-4.93652 l 1.405522,-1.959 -0.238638,-2.09765 c -0.582547,-5.12063 0.575262,-9.05563 2.867445,-9.74547 0.783045,-0.23567 1.881847,0.70995 2.213798,1.90517 0.763119,2.74767 0.01926,6.21925 -1.868252,8.71926 l -1.084228,1.43605 0.68453,5.46659 c 1.32424,10.57529 1.963383,21.76144 1.520344,26.60879 -0.465532,5.09344 -2.100763,8.83286 -5.483202,12.53891 -2.664261,2.91916 -5.427879,3.96285 -8.329379,3.14561 z m 10.455862,-42.5446 -0.464055,-3.5038 -0.635447,0.77438 c -1.772082,2.15952 -2.093106,3.8472 -0.937147,4.92678 0.74276,0.69367 2.240436,1.56321 2.407904,1.39799 0.05104,-0.0504 -0.116025,-1.66826 -0.371255,-3.59535 z m 1.925825,-9.03265 c 0.634572,-1.20708 0.730372,-1.69074 0.731235,-3.69176 0.0011,-2.57415 -0.335735,-3.33308 -1.016252,-2.28964 -0.979609,1.50203 -1.400775,7.37047 -0.528963,7.37047 0.04606,0 0.412346,-0.62508 0.81398,-1.38907 z m 13.183396,50.45948 c -1.16998,-1.26243 -1.56086,-3.5744 -1.40899,-8.33399 0.11665,-3.65568 0.0815,-4.23342 -0.25,-4.10622 -0.21216,0.0814 -0.85159,0.22251 -1.42095,0.31356 -0.98991,0.15829 -1.0352,0.20884 -1.0352,1.1554 0,1.56908 -0.76783,5.55448 -1.3034,6.76521 -0.64682,1.46225 -2.238932,3.19413 -3.573345,3.88704 -1.328269,0.68973 -3.386119,0.73786 -4.58211,0.10719 -0.892325,-0.47055 -1.230196,-1.17969 -0.396875,-0.833 1.228622,0.51116 2.948205,0.45408 4.172289,-0.13849 2.500913,-1.21067 3.811701,-4.11204 4.038411,-8.93884 0.11555,-2.46001 0.0765,-2.7801 -0.40338,-3.3073 -1.181245,-1.29771 -1.518359,-3.19682 -0.710816,-4.00437 0.514276,-0.51427 0.646256,-0.51603 1.357186,-0.0181 0.53447,0.37436 0.87645,1.15165 1.25103,2.84345 0.13268,0.59929 0.30325,0.72761 0.96719,0.72761 0.98174,0 1.7914,-0.40917 2.43914,-1.23265 0.50465,-0.64156 1.35128,-0.82115 1.64334,-0.34858 0.0921,0.14896 -0.0106,0.77404 -0.2281,1.38906 -0.50925,1.43986 -1.09106,9.20743 -0.84009,11.21605 0.21884,1.75157 0.76794,2.99903 1.32008,2.99903 0.20596,0 0.44805,0.11907 0.53799,0.26459 0.35328,0.57162 -0.98805,0.22493 -1.5734,-0.40667 z m 24.82475,-2.09009 c -1.04738,-0.45585 -2.02809,-1.75429 -2.63679,-3.49107 l -0.47581,-1.35762 -0.57706,1.22533 c -1.91531,4.067 -6.22083,4.10081 -7.6465,0.06 -0.55427,-1.57098 -0.50915,-3.7645 0.12744,-6.19492 1.00594,-3.84057 2.50173,-6.29024 4.01785,-6.58006 1.10569,-0.21137 2.29546,0.27744 2.73253,1.12265 0.36881,0.7132 0.45273,0.75341 0.81545,0.3907 0.3038,-0.3038 0.53133,-0.33637 0.91512,-0.13097 0.45833,0.24529 0.5108,0.57995 0.5108,3.25818 0,4.83336 0.96709,8.86291 2.42064,10.08599 0.43722,0.36791 0.97033,0.66892 1.18467,0.66892 1.39226,0 3.39746,-2.24928 5.28789,-5.93154 0.56577,-1.10203 1.11672,-2.0042 1.22433,-2.00483 0.28666,-0.002 -1.25717,4.09769 -2.05757,5.46346 -1.39926,2.38766 -3.05409,3.80853 -4.4088,3.78547 -0.33465,-0.006 -0.98004,-0.17208 -1.43419,-0.36974 z m -6.26279,-2.86105 c 1.43926,-1.57405 2.19752,-4.5716 2.15845,-8.53282 -0.0144,-1.4552 -0.0806,-2.43747 -0.1471,-2.18281 -0.19509,0.74652 -0.61137,0.53155 -0.61137,-0.31572 0,-0.83927 -0.79658,-1.60251 -1.67251,-1.60251 -1.83894,0 -4.11009,6.41059 -3.60078,10.16366 0.27795,2.04825 1.05273,3.06551 2.33477,3.06551 0.69334,0 1.15892,-0.18015 1.53854,-0.59531 z"
       style="fill:#000000;stroke-width:0.26458332" />
  </g>
</svg>
