<?xml version="1.0" encoding="UTF-8" standalone="no"?>
<!-- Created with Inkscape (http://www.inkscape.org/) -->

<svg
   xmlns:dc="http://purl.org/dc/elements/1.1/"
   xmlns:cc="http://creativecommons.org/ns#"
   xmlns:rdf="http://www.w3.org/1999/02/22-rdf-syntax-ns#"
   xmlns:svg="http://www.w3.org/2000/svg"
   xmlns="http://www.w3.org/2000/svg"
   xmlns:sodipodi="http://sodipodi.sourceforge.net/DTD/sodipodi-0.dtd"
   xmlns:inkscape="http://www.inkscape.org/namespaces/inkscape"
   version="1.1"
   id="svg4056"
   width="512"
   height="1024"
   viewBox="0 0 512 1024"
   sodipodi:docname="irla_teste.svg"
   inkscape:version="0.92.4 5da689c313, 2019-01-14">
  <metadata
     id="metadata4062">
    <rdf:RDF>
      <cc:Work
         rdf:about="">
        <dc:format>image/svg+xml</dc:format>
        <dc:type
           rdf:resource="http://purl.org/dc/dcmitype/StillImage" />
        <dc:title></dc:title>
      </cc:Work>
    </rdf:RDF>
  </metadata>
  <defs
     id="defs4060" />
  <sodipodi:namedview
     pagecolor="#ffffff"
     bordercolor="#666666"
     borderopacity="1"
     objecttolerance="10"
     gridtolerance="10"
     guidetolerance="10"
     inkscape:pageopacity="0"
     inkscape:pageshadow="2"
     inkscape:window-width="1215"
     inkscape:window-height="776"
     id="namedview4058"
     showgrid="false"
     inkscape:snap-object-midpoints="true"
     inkscape:snap-center="true"
     inkscape:snap-text-baseline="false"
     inkscape:snap-page="true"
     inkscape:snap-global="true"
     inkscape:snap-grids="true"
     inkscape:snap-bbox="true"
     inkscape:bbox-nodes="true"
     inkscape:snap-others="false"
     inkscape:object-paths="true"
     inkscape:snap-bbox-midpoints="true"
     inkscape:zoom="0.53710938"
     inkscape:cx="107.05455"
     inkscape:cy="512"
     inkscape:window-x="65"
     inkscape:window-y="24"
     inkscape:window-maximized="1"
     inkscape:current-layer="svg4056" />
  <path
     style="fill:#000000"
     d="m 256.43845,928.31961 c -9.78978,-11.63449 -13.46366,-31.72174 -14.2492,-77.9087 -0.46009,-27.05194 -0.22835,-33.94806 2.04986,-61 1.41273,-16.775 3.26653,-39.95 4.11956,-51.5 1.75751,-23.79671 3.5596,-35.9031 6.52349,-43.82481 4.24115,-11.33551 11.51766,-17.77801 17.66072,-15.63653 3.95023,1.37706 6.1004,5.38857 7.28665,13.59451 3.78544,26.18595 -4.1972,70.41562 -21.47464,118.98514 -3.10724,8.73493 -5.97027,17.23169 -6.3623,18.88169 -0.39202,1.65 -1.36931,3 -2.17177,3 -3.40924,0 -1.88494,57.44097 2.02949,76.47812 1.07189,5.21296 3.28654,12.17691 4.92144,15.47543 1.6349,3.29852 2.82998,6.13987 2.65574,6.31412 -0.17424,0.17424 -1.51931,-1.11229 -2.98904,-2.85897 z m -2.13753,-118.2692 c 13.31491,-44.84047 19.53278,-77.86223 19.5527,-103.84028 0.008,-10.94845 -1.36939,-20.29651 -3.154,-21.39946 -1.77194,-1.09512 -6.77122,4.80703 -8.92307,10.53457 -3.20044,8.51858 -4.63534,17.64844 -6.37552,40.56567 -0.87702,11.55 -2.46343,31.125 -3.52534,43.5 -2.2214,25.88717 -3.51613,47.72706 -2.7863,47 0.27605,-0.275 2.62124,-7.63723 5.21153,-16.3605 z m -129.50975,96.04813 c -20.12973,-5.66975 -35.328703,-30.69453 -33.537773,-55.21925 2.16119,-29.59496 20.213493,-47.34688 44.108423,-43.37448 11.77756,1.95796 11.77756,2.77479 0,2.8435 -9.94043,0.058 -11.57795,0.33803 -17,2.90723 -13.37288,6.33662 -20.811873,20.74795 -20.765393,40.22818 0.045,18.87835 9.782433,36.90003 23.655833,43.78153 10.38067,5.14902 17.93157,3.83317 26.8895,-4.6859 9.91855,-9.43262 17.37566,-21.78593 20.46956,-33.90951 2.2482,-8.80967 2.17777,-46.35399 -0.13871,-73.94361 -0.88594,-10.55158 -1.61079,-19.8805 -1.61079,-20.73095 0,-0.86032 -1.21995,-1.83878 -2.75,-2.20566 -7.10262,-1.70306 -12.61958,-5.9385 -14.27705,-10.96067 -1.59714,-4.83938 0.16977,-10.01299 6.37206,-18.65769 l 5.31221,-7.40411 -0.90194,-7.92812 c -2.20175,-19.35356 2.17422,-34.226 10.83759,-36.83329 2.95954,-0.89069 7.11249,2.6833 8.36711,7.20066 2.88423,10.38489 0.0728,23.50583 -7.06111,32.95468 l -4.09787,5.42759 2.5872,20.66112 c 5.005,39.96962 7.42066,82.24799 5.74618,100.56867 -1.75949,19.25081 -7.93989,33.38405 -20.72391,47.39117 -10.06965,11.03304 -20.51482,14.97768 -31.48112,11.88891 z m 39.51822,-160.79849 -1.75391,-13.24271 -2.40169,2.92679 c -6.69763,8.16196 -7.91095,14.5406 -3.54197,18.62088 2.80728,2.62178 8.46779,5.9082 9.10074,5.28377 0.19291,-0.19031 -0.43852,-6.30524 -1.40317,-13.58873 z m 7.27871,-34.13914 c 2.39838,-4.56219 2.76046,-6.39021 2.76372,-13.95312 0.004,-9.72906 -1.26892,-12.59746 -3.84095,-8.65378 -3.70246,5.67697 -5.29427,27.8569 -1.99923,27.8569 0.17407,0 1.55847,-2.3625 3.07646,-5.25 z m 49.827,190.71299 c -4.42198,-4.77139 -5.89929,-13.50956 -5.3253,-31.49855 0.44087,-13.81675 0.30793,-16.00033 -0.94488,-15.51958 -0.80187,0.3077 -3.2186,0.841 -5.37052,1.18511 -3.74141,0.59828 -3.91258,0.78932 -3.91258,4.36685 0,5.93041 -2.90204,20.99331 -4.92623,25.56932 -2.44468,5.5266 -8.46211,12.07229 -13.50556,14.69118 -5.02023,2.60683 -12.79793,2.78877 -17.31821,0.40512 -3.37257,-1.77844 -4.64956,-4.45869 -1.5,-3.14835 4.64361,1.93194 11.14282,1.71621 15.76928,-0.52342 9.45227,-4.57577 14.40642,-15.54156 15.26329,-33.78461 0.43671,-9.29765 0.28915,-10.50745 -1.52457,-12.5 -4.46457,-4.90476 -5.7387,-12.0825 -2.68657,-15.13463 1.94372,-1.94372 2.44255,-1.95037 5.12954,-0.0683 2.02002,1.41488 3.31256,4.3527 4.72827,10.7469 0.50149,2.26502 1.14616,2.75 3.65555,2.75 3.7105,0 6.77062,-1.54646 9.21879,-4.65881 1.90735,-2.4248 5.10721,-3.10356 6.21106,-1.3175 0.34797,0.56303 -0.04,2.92553 -0.86211,5.25 -1.92475,5.44198 -4.12369,34.79973 -3.17517,42.39138 0.82712,6.6201 2.90246,11.33493 4.9893,11.33493 0.77842,0 1.69342,0.45 2.03334,1 1.33524,2.16046 -3.73437,0.85015 -5.94672,-1.53701 z m 93.82584,-7.89957 c -3.95862,-1.7229 -7.66522,-6.63038 -9.96581,-13.19459 l -1.79834,-5.13117 -2.18101,4.63117 c -7.23898,15.37133 -23.51183,15.49913 -28.90016,0.22697 -2.09489,-5.93757 -1.92435,-14.22804 0.48165,-23.41387 3.80198,-14.51555 9.45536,-23.77413 15.18559,-24.86953 4.17898,-0.79886 8.67573,1.04861 10.32765,4.24309 1.39394,2.69557 1.71113,2.84754 3.08203,1.47665 1.14822,-1.14822 2.00817,-1.27129 3.45873,-0.49497 1.73226,0.92707 1.93055,2.19192 1.93055,12.31435 0,18.26785 3.65515,33.49763 9.14888,38.1203 1.65251,1.3905 3.66739,2.52818 4.47751,2.52818 5.26208,0 12.8408,-8.50121 19.98572,-22.4184 2.13834,-4.16516 4.22066,-7.57495 4.62738,-7.57731 1.08346,-0.006 -4.75151,15.48732 -7.77662,20.64929 -5.28856,9.02424 -11.54304,14.39443 -16.66321,14.30728 -1.26481,-0.0215 -3.70406,-0.65038 -5.42054,-1.39744 z m -23.67041,-10.81342 c 5.43975,-5.94915 8.3056,-17.27847 8.15793,-32.25 -0.0543,-5.5 -0.30444,-9.2125 -0.55597,-8.25 -0.73733,2.8215 -2.31067,2.00898 -2.31067,-1.1933 0,-3.17203 -3.01069,-6.0567 -6.3213,-6.0567 -6.95033,0 -15.5342,24.22899 -13.60927,38.41382 1.05053,7.7414 3.97882,11.58618 8.82435,11.58618 2.62051,0 4.38016,-0.68087 5.81493,-2.25 z"
     id="path4086"
     inkscape:connector-curvature="0" />
</svg>
